<?xml version="1.0" encoding="UTF-8"?>
<svg id="Capa_1" data-name="Capa 1" xmlns="http://www.w3.org/2000/svg" viewBox="0 0 132.06 117.82">
  <defs>
    <style>
      .cls-1 {
        fill: none;
        stroke: #000;
        stroke-miterlimit: 10;
        stroke-width: 3px;
      }

      .cls-2 {
        fill: #f6b8c9;
      }
    </style>
  </defs>
  <ellipse class="cls-2" cx="60.52" cy="64.31" rx="49.63" ry="63.72" transform="translate(-25.44 84.57) rotate(-60)"/>
  <path class="cls-1" d="M39.47,104.33c8.33-2.98,20.06-8.29,32.04-17.85,15.78-12.61,24.67-26.77,29.28-35.57"/>
  <path class="cls-1" d="M52.42,81.08c.88-6.31,4.47-26.16,21.6-42.57,21.39-20.49,47.82-20.22,52.92-20.07,1.35,3.13,10.3,24.9-1.08,47.88-1.55,3.12-12.44,24.25-36.72,29.62-12.75,2.82-23.43.02-28.62-1.73"/>
  <path class="cls-1" d="M55.32,68.57c-2.28-2.61-14.17-16.8-12.45-37.43,1.39-16.69,10.84-27.4,13.85-30.55,2.67.99,10.72,4.35,16.39,13.12,5.86,9.05,5.46,18.09,5.23,20.87"/>
  <path class="cls-1" d="M63.33,51.54c.38-4.04.5-9.25-.29-15.23-.78-5.9-2.23-10.84-3.63-14.62"/>
</svg>
